<svg xmlns="http://www.w3.org/2000/svg" viewBox="0 0 66 8" width="66" height="8">
	<style>
		tspan { white-space:pre }
		.shp0 { fill: #05c5e0 } 
	</style>
	<g id="FIND CUSTOMER">
		<g id="Content">
			<g id="Text">
				<path id="Shape 1 copy" class="shp0" d="M63.09 3.42C62.75 3.75 62.38 3.85 61.88 3.52L57.46 0.41C57.09 0.15 56.71 -0.19 56.34 0.18L53.01 3.35C52.67 3.69 52.22 3.85 51.8 3.45L47.38 0.35C46.97 0.08 46.51 -0.19 46.14 0.18L42.8 3.35C42.47 3.69 42.01 3.85 41.6 3.45L37.18 0.35C36.81 0.08 36.35 -0.19 35.93 0.18L32.27 3.63C32.01 3.77 31.72 3.76 31.36 3.52L26.94 0.41C26.57 0.15 26.19 -0.19 25.82 0.18L22.49 3.35C22.15 3.69 21.7 3.85 21.28 3.45L16.86 0.35C16.45 0.08 15.99 -0.19 15.62 0.18L12.28 3.35C11.95 3.69 11.49 3.85 11.08 3.45L6.66 0.35C6.29 0.08 5.83 -0.19 5.41 0.18L0 5.29L0 7.23L2.83 4.52C3.21 4.15 3.75 4.45 4.08 4.69L8.5 7.79C8.95 8.13 9.33 7.99 9.66 7.69L13.03 4.52C13.37 4.19 13.95 4.45 14.24 4.69L18.66 7.79C19.16 8.13 19.53 8.03 19.86 7.69L23.2 4.52C23.57 4.15 24.11 4.45 24.44 4.69L28.86 7.79C29.32 8.13 29.69 7.99 30.03 7.69L33.54 4.42C33.9 4.27 34.32 4.49 34.6 4.69L39.02 7.79C39.47 8.13 39.85 7.99 40.18 7.69L43.55 4.52C43.89 4.19 44.47 4.45 44.76 4.69L49.18 7.79C49.68 8.13 50.05 8.03 50.38 7.69L53.72 4.52C54.09 4.15 54.63 4.45 54.96 4.69L59.38 7.79C59.84 8.13 60.21 7.99 60.54 7.69L66 2.62L66 0.71L63.09 3.42Z" />
			</g>
		</g>
	</g>
</svg>