<svg xmlns="http://www.w3.org/2000/svg" viewBox="0 0 691 817" width="691" height="817">
	<style>
		tspan { white-space:pre }
		.shp0 { opacity: 0.059;fill: #ffffff } 
	</style>
	<g id="TESTIMONIAL">
		<g id="Bg">
			<g id="Bg">
				<path id="Ellipse 43" class="shp0" d="M293.62 0.01C253.35 0.59 218.37 9.92 184.05 24.69C150.1 39.57 116.81 59.9 88.4 85.07C59.99 110.25 36.46 140.26 22.03 174.51C7.24 208.65 1.56 247.02 0.44 286.31C-2.27 325.01 8.46 363.15 14.8 395.37C21.94 428.39 24.69 455.47 24.64 490.51C24.99 525.13 22.53 567.67 28.18 621.92C33.81 674.53 47.55 738.84 79.6 779.34C108.45 821.31 143.68 826.72 171.05 803C199.66 780.71 220.41 729.3 248.96 690.85C277.37 648.83 313.56 619.76 369.3 597.5C423.45 574.17 497.15 557.65 564.02 516.02C630.33 478.28 679.85 416.71 688.79 352.18C699.6 287.42 669.83 219.69 620.66 164.13C571.83 108.16 503.56 64.35 444.85 37.9C384.93 10.87 334.56 1.21 293.62 0.01L293.62 0.01Z" />
			</g>
		</g>
	</g>
</svg>